<?xml version="1.0" encoding="iso-8859-1"?>
<!-- Generator: Adobe Illustrator 19.0.0, SVG Export Plug-In . SVG Version: 6.00 Build 0)  -->
<svg version="1.1" id="Layer_1" xmlns="http://www.w3.org/2000/svg" xmlns:xlink="http://www.w3.org/1999/xlink" x="0px" y="0px"
	 viewBox="0 0 502.613 502.613" style="enable-background:new 0 0 502.613 502.613;" xml:space="preserve">
<g transform="translate(5 1)">
	<path style="fill:#F2EDDA;" d="M228.813,272.067c5.12,2.56,11.093,3.413,17.067,3.413c25.6,0,34.133-25.6,34.133-34.133
		c0,8.533,8.533,34.133,34.133,34.133c5.973,0,11.947-0.853,17.067-3.413v0.853c0,0-8.533,36.693-51.2,36.693
		S228.813,272.92,228.813,272.067L228.813,272.067z M169.08,156.013c0-25.6,8.533-42.667,8.533-42.667
		c5.12-11.947,34.133-25.6,34.133-25.6c17.067-8.533,42.667-8.533,42.667-8.533s0-8.533-17.067-25.6
		c25.6,0,42.667,17.067,42.667,17.067s17.067-17.067,42.667-17.067c-17.067,17.067-17.067,25.6-17.067,25.6s25.6,0,42.667,8.533
		c0,0,29.013,14.507,34.133,25.6c0,0,8.533,17.067,8.533,42.667c0,34.133-34.133,42.667-42.667,85.333
		c0,17.067-7.68,26.453-17.067,30.72c-5.12,2.56-11.093,3.413-17.067,3.413c-25.6,0-34.133-25.6-34.133-34.133
		c0,8.533-8.533,34.133-34.133,34.133c-5.973,0-11.947-0.853-17.067-3.413c-10.24-4.267-17.067-13.653-17.067-30.72
		C203.213,198.68,169.08,190.147,169.08,156.013z"/>
	<g>
		<path style="fill:#FFD0A1;" d="M236.493,446.147L236.493,446.147L236.493,446.147c0.853,0,0.853-27.307-3.413-59.733
			c0,0-1.707-18.773-4.267-35.84l0,0c-13.653-5.973-27.307-13.653-39.253-23.04c0.853-2.56,0.853-5.973,1.707-9.387h-1.707
			c-17.067,2.56-27.307,17.067-27.307,17.067c-5.973,8.533-10.24,19.627-10.24,34.133c0,51.2,17.067,76.8,17.067,76.8
			c-18.773,0-34.133,6.827-34.133,25.6c0,15.36,15.36,25.6,34.133,25.6h8.533c0,0,17.067,0,25.6-17.067h1.707
			c-0.853-2.56-1.707-5.12-1.707-8.533C203.213,452.973,217.72,446.147,236.493,446.147z"/>
		<path style="fill:#FFD0A1;" d="M58.147,258.413v17.067c0,0,0,17.067-17.067,17.067S32.547,258.413,58.147,258.413"/>
		<path style="fill:#FFD0A1;" d="M390.947,156.013c0-25.6-8.533-42.667-8.533-42.667c-5.12-11.093-34.133-25.6-34.133-25.6
			c-17.067-8.533-42.667-8.533-42.667-8.533s0-8.533,17.067-25.6c-25.6,0-42.667,17.067-42.667,17.067s-17.067-17.067-42.667-17.067
			c17.067,17.067,17.067,25.6,17.067,25.6s-25.6,0-42.667,8.533c0,0-29.013,13.653-34.133,25.6c0,0-8.533,17.067-8.533,42.667
			c0,34.133,34.133,42.667,42.667,85.333c0,17.067,7.68,26.453,17.067,30.72v0.853c0,0,8.533,36.693,51.2,36.693
			s51.2-36.693,51.2-36.693v-0.853c10.24-4.267,17.067-13.653,17.067-30.72C356.813,198.68,390.947,190.147,390.947,156.013
			 M155.427,36.547c32.427-23.04,75.947-34.133,124.587-34.133c48.64,0,93.013,11.093,125.44,34.133l0,0
			c0,0,19.627-25.6,53.76-8.533c0,34.133-17.067,51.2-17.067,51.2c11.093,19.627,17.067,40.96,17.067,68.267
			c0,22.187-4.267,46.08-11.947,68.267c-6.827-3.413-13.653-6.827-22.187-8.533c4.267,16.213,5.973,31.573,6.827,44.373
			c-11.093,22.187-25.6,42.667-42.667,58.88c-6.827-4.267-14.507-7.68-23.893-9.387c1.707,5.973,2.56,11.947,3.413,17.92
			c0.853,2.56,0.853,5.973,1.707,8.533c-11.947,9.387-25.6,17.067-39.253,23.04c-11.093,4.267-23.893,7.68-35.84,9.387
			c-9.387-5.973-15.36-16.213-15.36-16.213s-5.973,10.24-15.36,16.213c-12.8-1.707-24.747-5.12-35.84-9.387
			c-13.653-5.973-27.307-13.653-39.253-23.04c0-2.56,0.853-5.973,1.707-8.533l0,0c0.853-5.973,2.56-11.947,3.413-17.067
			c-9.387,1.707-17.067,5.12-23.893,9.387c-34.987-34.987-59.733-83.627-67.413-131.413c5.12-9.387,12.8-17.92,23.04-23.04
			c-9.387-3.413-17.92-4.267-25.6-3.413c0-1.707,0-3.413,0-5.12c0-27.307,5.973-48.64,17.067-68.267c0,0-17.067-17.067-17.067-51.2
			C133.24,11.8,153.72,34.84,155.427,36.547"/>
		<path style="fill:#FFD0A1;" d="M371.32,319c18.773,2.56,27.307,16.213,27.307,16.213c5.973,8.533,10.24,19.627,10.24,34.133
			c0,51.2-17.067,76.8-17.067,76.8h-68.267c0,0,0-27.307,4.267-59.733c0,0,1.707-18.773,4.267-34.133l-0.853-1.707
			c13.653-5.973,27.307-13.653,39.253-23.04c-0.853-2.56-0.853-5.12-1.707-8.533L371.32,319z M322.68,446.147h68.267
			c18.773,0,34.133,6.827,34.133,25.6c0,15.36-15.36,25.6-34.133,25.6h-8.533c0,0-17.067,0-25.6-17.067h-1.707
			c0.853-2.56,1.707-5.12,1.707-8.533C356.813,452.973,341.453,446.147,322.68,446.147"/>
		<path style="fill:#FFD0A1;" d="M314.147,446.147h8.533c18.773,0,34.133,6.827,34.133,25.6c0,2.56-0.853,5.973-1.707,8.533
			c-4.267,11.093-17.92,17.067-32.427,17.067h-8.533c-18.773,0-34.133-15.36-34.133-34.133v-17.067H314.147z M280.013,343.747
			c0,0,5.12,10.24,15.36,16.213c12.8-1.707,24.747-5.12,35.84-9.387l0.853,1.707c-2.56,15.36-4.267,34.133-4.267,34.133
			c-4.267,32.427-4.267,59.733-4.267,59.733H315h-34.133v-102.4H280.013z"/>
	</g>
	<path style="fill:#AE938D;" d="M305.613,213.187l0.853,2.56c0,9.387-11.093,25.6-25.6,25.6c-14.507,0-25.6-16.213-25.6-25.6
		l0.853-2.56v-0.853c2.56-5.973,12.8-5.973,24.747-5.973C292.813,206.36,303.053,207.213,305.613,213.187L305.613,213.187z"/>
	<path style="fill:#FFD0A1;" d="M237.347,446.147L237.347,446.147c-18.773,0-34.133,6.827-34.133,25.6
		c0,2.56,0.853,5.973,1.707,8.533c4.267,11.093,17.92,17.067,32.427,17.067h8.533c18.773,0,34.133-15.36,34.133-34.133v-17.067
		H237.347h42.667v-102.4c0,0-5.973,10.24-15.36,16.213c-12.8-1.707-24.747-5.12-35.84-9.387l0,0
		c2.56,17.067,4.267,35.84,4.267,35.84C237.347,418.84,237.347,446.147,237.347,446.147z"/>
</g>
<path style="fill:#51565F;" d="M395.947,502.613h-8.533c-2.56,0-4.267-1.707-4.267-4.267c0-2.56,1.707-4.267,4.267-4.267h8.533
	c14.507,0,29.867-7.68,29.867-21.333c0-14.507-10.24-21.333-29.867-21.333c-1.707,0-3.413-0.853-3.413-2.56
	c-0.853-1.707-0.853-3.413,0-4.267c0,0,16.213-25.6,16.213-74.24c0-11.947-3.413-23.04-9.387-31.573
	c-1.707-1.707-0.853-4.267,0.853-5.973c1.707-1.707,4.267-0.853,5.973,0.853c6.827,10.24,11.093,22.187,11.093,36.693
	c0,38.4-9.387,62.293-14.507,72.533c19.627,1.707,31.573,12.8,31.573,29.867C434.347,489.813,418.133,502.613,395.947,502.613z
	 M327.68,502.613h-8.533c-14.507,0-28.16-8.533-34.133-20.48c-5.973,11.947-19.627,20.48-34.133,20.48h-8.533
	c-22.187,0-38.4-12.8-38.4-29.867c0-17.92,11.947-28.16,34.133-29.867c0-8.533-0.853-30.72-4.267-54.613
	c0-2.56,1.707-4.267,3.413-5.12c2.56,0,4.267,1.707,5.12,3.413c3.413,24.747,4.267,46.933,4.267,56.32h4.267
	c2.56,0,4.267,1.707,4.267,4.267s-1.707,4.267-4.267,4.267h-8.533c-19.627,0-29.867,6.827-29.867,21.333
	c0,13.653,15.36,21.333,29.867,21.333h8.533c16.213,0,29.867-13.653,29.867-29.867v-68.267c0-2.56,1.707-4.267,4.267-4.267
	s4.267,1.707,4.267,4.267v68.267c0,16.213,13.653,29.867,29.867,29.867h8.533c14.507,0,29.867-7.68,29.867-21.333
	c0-14.507-10.24-21.333-29.867-21.333h-8.533c-2.56,0-4.267-1.707-4.267-4.267s1.707-4.267,4.267-4.267h4.267
	c0-9.387,0.853-30.72,4.267-56.32c0-2.56,2.56-4.267,5.12-3.413c2.56,0,4.267,2.56,3.413,5.12
	c-3.413,24.747-4.267,46.08-4.267,54.613c21.333,0.853,34.133,11.947,34.133,29.867C366.08,489.813,349.867,502.613,327.68,502.613z
	 M182.613,502.613h-8.533c-22.187,0-38.4-12.8-38.4-29.867c0-17.067,11.093-27.307,31.573-29.867
	c-4.267-9.387-11.947-29.867-13.653-60.587c-7.68-1.707-25.6-7.68-39.253-25.6C99.84,337.067,95.573,309.76,102.4,275.627
	c2.56-16.213-5.12-24.747-13.653-26.453c-7.68-1.707-17.067,0.853-20.48,11.093v16.213c0,7.68-4.267,21.333-21.333,21.333
	c-5.12,0-8.533-2.56-10.24-4.267c-1.707-2.56-3.413-5.973-3.413-9.387c0-11.093,9.387-26.453,27.307-28.16
	c5.973-12.8,18.773-17.067,29.867-14.507c12.8,3.413,23.04,15.36,19.627,36.693c-5.973,31.573-2.56,57.173,10.24,74.24
	c10.24,14.507,24.747,19.627,32.427,22.187c0-0.853,0-2.56,0-3.413c0-13.653,3.413-26.453,11.093-36.693
	c1.707-1.707,4.267-2.56,5.973-0.853c1.707,1.707,2.56,4.267,0.853,5.973c-5.973,8.533-9.387,19.627-9.387,31.573
	c0,49.493,16.213,74.24,16.213,74.24c0.853,1.707,0.853,3.413,0,4.267c-0.853,0.853-2.56,2.56-3.413,2.56
	c-19.627,0-29.867,6.827-29.867,21.333c0,13.653,15.36,21.333,29.867,21.333h8.533c2.56,0,4.267,1.707,4.267,4.267
	C186.88,501.76,185.173,502.613,182.613,502.613z M58.88,263.68c-11.947,2.56-17.067,12.8-17.067,19.627
	c0,1.707,0,3.413,0.853,4.267c0,0,0.853,1.707,3.413,1.707c11.947,0,12.8-11.093,12.8-12.8V263.68z M270.507,365.227
	C269.653,365.227,269.653,365.227,270.507,365.227c-27.307-3.413-53.76-14.507-78.507-33.28c-0.853-0.853-1.707-2.56-1.707-4.267
	c0.853-6.827,2.56-13.653,3.413-19.627c-5.12,1.707-11.093,4.267-16.213,7.68c-1.707,0.853-4.267,0.853-5.12-0.853
	c-34.987-35.84-60.587-84.48-68.267-133.973c0-0.853,0-1.707,0.853-2.56c4.267-7.68,9.387-14.507,16.213-19.627
	c-5.12-0.853-10.24-1.707-14.507-0.853c-0.853,0-2.56,0-3.413-0.853c-0.853-0.853-1.707-1.707-1.707-3.413v-1.707
	c0-0.853,0-2.56,0-3.413c0-25.6,5.12-46.933,16.213-67.413c-5.12-5.973-16.213-23.04-16.213-52.053c0-1.707,0.853-3.413,2.56-3.413
	c29.013-14.507,49.493,0,57.173,6.827C192.853,11.093,235.52,0,285.866,0c49.493,0,93.013,11.947,124.587,33.28
	c6.827-6.827,26.453-22.187,56.32-6.827c1.707,0.853,2.56,2.56,2.56,3.413c0,28.16-11.093,46.08-16.213,52.053
	c11.093,20.48,16.213,41.813,16.213,67.413c0,22.187-4.267,46.08-11.947,69.973c0,0.853-1.707,2.56-2.56,2.56
	c-0.853,0.853-2.56,0-3.413,0c-4.267-2.56-9.387-5.12-14.507-5.973c2.56,11.947,4.267,24.747,5.973,37.547
	c0,0.853,0,1.707-0.853,2.56c-11.947,23.04-26.453,43.52-43.52,60.587c-1.707,1.707-3.413,1.707-5.12,0.853
	c-5.12-3.413-10.24-5.973-16.213-7.68c1.707,5.973,2.56,12.8,3.413,19.627c0,1.707,0,3.413-1.707,4.267
	c-24.747,18.773-50.347,29.867-77.653,33.28c-0.853,0-1.707,0-2.56-0.853c-5.973-3.413-10.24-8.533-12.8-11.947
	c-2.56,3.413-6.827,8.533-12.8,11.947C271.36,365.227,270.507,365.227,270.507,365.227z M285.013,340.48L285.013,340.48
	c1.707,0,3.413,0.853,3.413,2.56c0,0,4.267,8.533,11.947,13.653c24.747-3.413,47.787-12.8,69.973-29.867
	c-1.707-8.533-2.56-16.213-4.267-23.04c0-1.707,0-2.56,0.853-4.267c0.853-0.853,2.56-1.707,4.267-0.853
	c7.68,1.707,15.36,4.267,22.187,8.533c15.36-15.36,28.16-34.133,39.253-54.613c-1.707-15.36-3.413-29.867-6.827-42.667
	c0-1.707,0-2.56,0.853-4.267c0.853-0.853,2.56-1.707,4.267-0.853c6.827,1.707,12.8,3.413,18.773,6.827
	c6.827-21.333,10.24-41.813,10.24-62.293c0-24.747-5.12-46.08-16.213-66.56c-0.853-1.707-0.853-3.413,0.853-5.12
	c0,0,15.36-15.36,15.36-45.227c-22.187-10.24-37.547,0-43.52,5.12c5.973,4.267,11.093,9.387,16.213,14.507
	c1.707,1.707,1.707,4.267,0,5.973c-1.707,1.707-4.267,1.707-5.973,0C396.8,25.6,346.454,7.68,285.013,7.68
	c-49.493,0-91.307,11.093-121.173,32.427c0,0,0,0-0.853,0.853l-0.853,0.853c-6.827,5.12-12.8,10.24-18.773,16.213
	c-1.707,1.707-4.267,1.707-5.973,0c-1.707-1.707-1.707-4.267,0-5.973c5.12-5.12,11.093-10.24,17.067-15.36
	c-5.973-5.12-21.333-15.36-43.52-5.12c0.853,29.867,15.36,45.227,16.213,45.227c1.707,1.707,1.707,3.413,0.853,5.12
	c-11.093,20.48-16.213,40.96-16.213,66.56c0,0,0,0,0,0.853c7.68,0,15.36,1.707,23.04,4.267c1.707,0.853,2.56,1.707,2.56,3.413
	c0,1.707-0.853,3.413-2.56,4.267c-8.533,4.267-15.36,11.093-20.48,20.48c7.68,46.08,30.72,91.307,63.147,125.44
	c6.827-4.267,14.507-6.827,22.187-8.533c1.707,0,2.56,0,4.267,0.853c0.853,0.853,1.707,2.56,0.853,4.267
	c-1.707,6.827-3.413,15.36-4.267,23.04c22.187,17.067,45.227,26.453,69.973,29.867c7.68-5.12,11.947-13.653,11.947-13.653
	C281.6,341.333,283.307,340.48,285.013,340.48z M285.013,314.88c-40.107,0-52.907-31.573-54.613-38.4
	c-11.093-5.973-17.067-17.92-17.92-33.28c-4.267-19.627-13.653-31.573-23.04-43.52c-10.24-11.947-19.627-23.893-19.627-42.667
	c0-26.453,8.533-43.52,9.387-44.373c0.853-1.707,3.413-2.56,5.973-1.707c1.707,0.853,2.56,3.413,1.707,5.973
	c0,0-7.68,16.213-7.68,40.96c0,16.213,8.533,25.6,17.92,37.547c6.827,8.533,14.507,17.92,19.627,29.867
	c2.56-6.827,5.973-10.24,6.827-11.093c1.707-1.707,4.267-1.707,5.973,0c1.707,1.707,1.707,4.267,0,5.973l0,0
	c0,0-7.68,7.68-7.68,22.187l0,0c0,25.6,18.773,29.867,29.867,29.867c19.627,0,27.307-17.067,29.013-26.453
	C266.24,243.2,256,226.986,256,216.747l0,0l0,0c0-1.707,0-2.56,0.853-4.267l7.68-47.787c0-2.56,2.56-4.267,5.12-3.413
	c1.707,0,3.413,2.56,3.413,4.267v0.853l-6.827,39.253c5.12-1.707,12.8-1.707,19.627-1.707s13.653,0,19.627,1.707l-6.827-39.253
	v-0.853c0-1.707,1.707-4.267,3.413-4.267c2.56,0,4.267,0.853,5.12,3.413l7.68,47.787c0,0.853,0.853,2.56,0.853,4.267l0,0l0,0
	c0,10.24-11.093,26.453-24.747,29.013c1.707,9.387,10.24,26.453,29.013,26.453c11.093,0,29.867-4.267,29.867-29.867l0,0
	c0-14.507-6.827-22.187-7.68-22.187c-1.707-1.707-1.707-4.267,0-5.973c1.707-1.707,4.267-1.707,5.973,0
	c0,0,3.413,4.267,6.827,11.093c5.12-12.8,12.8-22.187,19.627-29.867c9.387-11.947,17.92-21.333,17.92-37.547
	c0-23.893-7.68-40.96-7.68-40.96c-0.853-1.707,0-4.267,1.707-5.973c1.707-0.853,4.267,0,5.973,1.707
	c0,0.853,9.387,17.92,9.387,44.373c0,18.773-9.387,30.72-19.627,42.667c-9.387,11.093-18.773,23.04-23.04,43.52
	c0,15.36-6.827,27.307-17.92,33.28C337.92,283.307,325.12,314.88,285.013,314.88z M240.64,279.893
	c4.267,10.24,17.067,26.453,44.373,26.453s40.107-17.067,44.373-26.453c-3.413,0.853-6.827,0.853-10.24,0.853
	c-18.773,0-29.013-11.093-34.133-22.187c-5.12,11.093-15.36,22.187-34.133,22.187C247.467,280.747,244.053,280.747,240.64,279.893z
	 M263.68,216.747c0,7.68,10.24,21.333,21.333,21.333s21.333-13.653,21.333-21.333v-1.707c-1.707-2.56-9.387-3.413-21.333-3.413
	s-19.627,0-21.333,3.413V216.747z M340.48,152.747c-5.12,0-8.533-3.413-8.533-8.533s3.413-8.533,8.533-8.533
	s8.533,3.413,8.533,8.533S345.6,152.747,340.48,152.747z M229.547,152.747c-5.12,0-8.533-3.413-8.533-8.533s3.413-8.533,8.533-8.533
	c5.12,0,8.533,3.413,8.533,8.533S234.667,152.747,229.547,152.747z M353.28,93.013c-0.853,0-1.707,0-1.707-0.853
	c-16.213-7.68-40.107-7.68-40.96-7.68c-2.56,0-4.267-1.707-4.267-4.267c0-1.707,0.853-8.533,10.24-20.48
	c-17.92,3.413-29.013,14.507-29.013,14.507c-1.707,1.707-4.267,1.707-5.973,0c0,0-11.093-11.093-29.013-14.507
	c10.24,11.947,10.24,18.773,10.24,20.48c0,2.56-1.707,4.267-4.267,4.267c0,0-24.747,0-40.96,7.68c-1.707,0.853-4.267,0-5.973-1.707
	c-0.853-1.707,0-4.267,1.707-5.973c12.8-6.827,29.867-8.533,39.253-8.533c-1.707-3.413-5.973-10.24-14.507-18.773
	c-0.853-0.853-1.707-3.413-0.853-4.267c0.853-1.707,2.56-2.56,4.267-2.56c21.333,0,36.693,10.24,42.667,15.36
	c5.973-5.12,21.333-15.36,42.667-15.36c1.707,0,3.413,0.853,4.267,2.56c0.853,1.707,0,3.413-0.853,4.267
	c-8.533,8.533-12.8,14.507-14.507,18.773c8.533,0.853,25.6,2.56,38.4,8.533c1.707,0.853,2.56,3.413,1.707,5.973
	C356.693,92.16,354.987,93.013,353.28,93.013z"/>
<g>
</g>
<g>
</g>
<g>
</g>
<g>
</g>
<g>
</g>
<g>
</g>
<g>
</g>
<g>
</g>
<g>
</g>
<g>
</g>
<g>
</g>
<g>
</g>
<g>
</g>
<g>
</g>
<g>
</g>
</svg>
