<?xml version="1.0" encoding="iso-8859-1"?>
<!-- Generator: Adobe Illustrator 19.0.0, SVG Export Plug-In . SVG Version: 6.00 Build 0)  -->
<svg version="1.1" id="Capa_1" xmlns="http://www.w3.org/2000/svg" xmlns:xlink="http://www.w3.org/1999/xlink" x="0px" y="0px"
	 viewBox="0 0 155.301 155.301" style="enable-background:new 0 0 155.301 155.301;" xml:space="preserve">
<g>
	<circle style="fill:#98E2ED;" cx="77.65" cy="77.65" r="77.65"/>
	<g>
		<g>
			<path style="fill:#E47C28;" d="M106.533,109.686c-0.041-0.129-0.066-0.248-0.096-0.369c-1.557,0.914-3.047,1.158-4.436,0.709
				c-1.879-0.607-3.6-2.445-4.961-5.262c-0.606,0.781-1.254,1.527-1.943,2.232c1.631,2.953,3.69,4.883,6.059,5.648
				c0.73,0.234,1.477,0.352,2.234,0.352c1.449,0,2.936-0.434,4.4-1.283C107.283,111.334,106.85,110.686,106.533,109.686z"/>
			<path style="fill:#86542A;" d="M106.438,109.316c0.029,0.121,0.055,0.24,0.096,0.369c0.316,1,0.75,1.648,1.258,2.027
				c2.594,1.934,7.197-3.328,8.797-6.768C116.588,104.945,105.105,103.648,106.438,109.316z"/>
			<path style="fill:#FFBA00;" d="M97.91,103.58c-6.07,4.688-13.406,7.428-21.31,7.428c-7.902,0-15.769-2.74-21.841-7.428
				c0.828,1.201,1.239,2.326,2.239,3.369v17.154c0-1.422,2.213-1.91,3.637-1.91h0.348c0.748,0,1.418,0.326,1.889,0.836
				c0.471-0.51,1.139-0.836,1.889-0.836h0.348c0.584,0,1.115,0.201,1.545,0.527c0.432-0.326,0.965-0.527,1.547-0.527h0.348
				c1.424,0,2.451,0.488,2.451,1.91v-9.902c2,0.381,3.594,0.586,5.475,0.586c1.898,0,3.525-0.209,5.525-0.598v8.176
				c0-0.512,1.268-0.172,2.018-0.172h0.348c0.75,0,1.418,0.326,1.889,0.836c0.471-0.51,1.139-0.836,1.889-0.836h0.35
				c0.582,0,1.113,0.201,1.545,0.527c0.432-0.326,0.963-0.527,1.545-0.527h0.348c1.424,0,2.07,0.488,2.07,1.91V107.58
				c0-0.191,0.653-0.387,0.847-0.584c0.689-0.705,1.464-1.451,2.069-2.232C97.215,104.377,97.633,103.984,97.91,103.58z"/>
			<path style="fill:#FFBA00;" d="M58.057,127.717h0.051c-0.031-0.166-0.051-0.336-0.051-0.512V127.717z"/>
			<path style="fill:#FFBA00;" d="M71.123,127.717v-0.512c0,0.176-0.018,0.346-0.051,0.512H71.123z"/>
			<path style="fill:#FFBA00;" d="M94.506,127.717v-0.512c0,0.176-0.02,0.346-0.053,0.512H94.506z"/>
			<path style="fill:#86542A;" d="M60.449,40.736c1.514-1.08,3.139-2.014,4.857-2.777c0.744,1.928,2.213,4.084,5.104,5.373
				c6.176,2.752,7.209,9.049,4.457,10.541c0,0,11.488-5.135,13.303-15.787c1.609,0.736,3.137,1.621,4.563,2.639
				c2.328-3.088,5.451-5.74,8.699-5c-5.748-5.654-13.006-9.387-21.006-10.295c-1.119-0.275-2.389-0.439-3.84-0.439
				c-2.254,0-4.117,0.26-5.65,0.701c-7.269,1.234-13.855,4.811-19.158,10.025C55.018,35.002,58.129,37.654,60.449,40.736z"/>
			<path style="fill:#86542A;" d="M76.6,111.008c7.904,0,15.24-2.74,21.31-7.428c10.006-7.723,16.578-20.727,16.578-35.471
				c0-9.353-2.654-18-7.141-25.051c0.131,3.678-3.268,6.523-5.723,8.15c1.795,3.68,2.805,7.814,2.805,12.186
				c0,0.766-0.039,1.521-0.1,2.271c-0.004,0.039-0.004,0.076-0.008,0.115c-0.189,2.219-0.639,4.361-1.316,6.402
				c-0.018,0.049-0.033,0.096-0.049,0.145C99.234,83.314,88.844,91.225,76.6,91.225c-12.244,0-22.633-7.91-26.358-18.895
				c-0.016-0.051-0.031-0.1-0.049-0.148c-0.174-0.525-0.336-1.055-0.48-1.592c-0.002-0.008-0.004-0.016-0.006-0.023l0,0
				c-0.412-1.547-0.69-3.145-0.83-4.785c-0.002-0.039-0.004-0.076-0.008-0.115c-0.061-0.75-0.1-1.506-0.1-2.271
				c0-4.365,1.008-8.494,2.799-12.174c-2.447-1.617-5.846-4.453-5.742-8.119c-4.473,7.043-7.113,15.674-7.113,25.008
				c0,14.744,6.57,27.748,16.576,35.471C61.361,108.268,68.697,111.008,76.6,111.008z"/>
			<path style="fill:#BA6900;" d="M99.732,47.922c3.568-2.193,4.605-4.912,1.975-6.65c-1.684-1.111-3.834,0.127-5.838,2.055
				C97.314,44.713,98.615,46.252,99.732,47.922z"/>
			<path style="fill:#FFBA00;" d="M51.568,51.221c-1.791,3.68-2.799,7.809-2.799,12.174c0,0.766,0.039,1.521,0.1,2.271
				c-0.043-0.561-0.074-1.123-0.084-1.691l9.791,1.717l-9.508,1.773c-0.08-0.557-0.143-1.117-0.191-1.684
				c0.141,1.641,0.418,3.238,0.83,4.785c2.492-0.291,8.092-1.072,8.092-1.072l-6.975,4.396c-0.209-0.514-0.402-1.035-0.582-1.561
				C53.967,83.314,64.355,91.225,76.6,91.225c12.244,0,22.635-7.91,26.357-18.896c-0.18,0.527-0.371,1.049-0.58,1.563l-6.975-4.396
				c0,0,5.6,0.781,8.09,1.072c-0.145,0.545-0.309,1.084-0.486,1.617c0.678-2.041,1.127-4.184,1.316-6.402
				c-0.047,0.566-0.109,1.127-0.191,1.684l-9.508-1.773l9.793-1.717c-0.012,0.568-0.041,1.131-0.086,1.691
				c0.061-0.75,0.1-1.506,0.1-2.271c0-4.371-1.01-8.506-2.805-12.186c2.455-1.627,5.853-4.473,5.723-8.15
				c-0.049-1.313-0.537-2.732-1.693-4.24c-1.395-1.822-2.82-2.773-4.223-3.094c-3.248-0.74-6.371,1.912-8.699,5
				c-1.426-1.018-2.953-1.902-4.563-2.639c-1.814,10.652-13.303,15.787-13.303,15.787c2.752-1.492,1.719-7.789-4.457-10.541
				c-2.891-1.289-4.359-3.445-5.104-5.373c-1.719,0.764-3.344,1.697-4.857,2.777c-2.32-3.082-5.432-5.734-8.672-5.02
				c-1.414,0.311-2.852,1.264-4.26,3.102c-1.166,1.525-1.654,2.957-1.691,4.283C45.723,46.768,49.121,49.604,51.568,51.221z
				 M48.893,60.822c0.092-0.992,0.231-1.967,0.422-2.922c2.271,1.059,10.664,5.065,10.664,5.065L48.893,60.822z M89.998,76.189
				c0,3.393-1.682,6.004-5.072,6.004H83.65c-1.223,2-3.234,4-5.477,4h-2.486c-2.494,0-4.674-2-5.805-5h-1.004
				c-3.34,0-5.881-2.682-5.881-5.939v-0.576c0-3.258,2.541-5.484,5.881-5.484h0.602c0.254-3,2.209-3.906,6.824-3.906
				c4.613,0,6.57,0.906,6.824,3.906h1.797c3.391,0,5.072,2.82,5.072,6.213V76.189z M104.307,60.822l-11.086,2.143
				c0,0,8.393-4.006,10.664-5.065C104.076,58.855,104.217,59.83,104.307,60.822z M101.707,41.271
				c2.631,1.738,1.594,4.457-1.975,6.65c-1.117-1.67-2.418-3.209-3.863-4.596C97.873,41.398,100.023,40.16,101.707,41.271z
				 M84.863,57.5c1.957-0.08,3.611,1.439,3.693,3.398c0.082,1.959-1.439,3.613-3.398,3.695c-1.959,0.082-3.613-1.44-3.693-3.398
				C81.383,59.236,82.904,57.582,84.863,57.5z M71.137,61.195c-0.08,1.959-1.734,3.48-3.693,3.398
				c-1.959-0.082-3.482-1.736-3.4-3.695c0.082-1.959,1.736-3.479,3.693-3.398C69.695,57.582,71.219,59.236,71.137,61.195z
				 M57.316,43.338c-1.441,1.387-2.738,2.924-3.857,4.596c-3.582-2.195-4.629-4.92-1.992-6.662
				C53.154,40.158,55.313,41.404,57.316,43.338z"/>
			<path style="fill:#BA6900;" d="M53.459,47.934c1.119-1.672,2.416-3.209,3.857-4.596c-2.004-1.934-4.162-3.18-5.85-2.066
				C48.83,43.014,49.877,45.738,53.459,47.934z"/>
			<path style="fill:#FFBA00;" d="M50.193,72.182c-0.174-0.525-0.336-1.055-0.48-1.592C49.857,71.127,50.02,71.656,50.193,72.182z"
				/>
			<path style="fill:#E47C28;" d="M57.799,69.494c0,0-5.6,0.781-8.092,1.072l0,0c0.002,0.008,0.004,0.016,0.006,0.023
				c0.145,0.537,0.307,1.066,0.48,1.592c0.018,0.049,0.033,0.098,0.049,0.148c0.18,0.525,0.373,1.047,0.582,1.561L57.799,69.494z"/>
			<path style="fill:#E47C28;" d="M58.576,65.691l-9.791-1.717c0.01,0.568,0.041,1.131,0.084,1.691
				c0.004,0.039,0.006,0.076,0.008,0.115c0.049,0.566,0.111,1.127,0.191,1.684L58.576,65.691z"/>
			<path style="fill:#E47C28;" d="M49.314,57.9c-0.191,0.955-0.33,1.93-0.422,2.922l11.086,2.143
				C59.979,62.965,51.586,58.959,49.314,57.9z"/>
			<path style="fill:#E47C28;" d="M95.402,69.494l6.975,4.396c0.209-0.514,0.4-1.035,0.58-1.563
				c0.016-0.049,0.031-0.096,0.049-0.145c0.178-0.533,0.342-1.072,0.486-1.617C101.002,70.275,95.402,69.494,95.402,69.494z"/>
			<path style="fill:#E47C28;" d="M94.623,65.691l9.508,1.773c0.082-0.557,0.145-1.117,0.191-1.684
				c0.004-0.039,0.004-0.076,0.008-0.115c0.045-0.561,0.074-1.123,0.086-1.691L94.623,65.691z"/>
			<path style="fill:#E47C28;" d="M104.307,60.822c-0.09-0.992-0.23-1.967-0.422-2.922c-2.271,1.059-10.664,5.065-10.664,5.065
				L104.307,60.822z"/>
			<path style="fill:#FFFFFF;" d="M64.043,60.898c-0.082,1.959,1.441,3.613,3.4,3.695c1.959,0.082,3.613-1.44,3.693-3.398
				c0.082-1.959-1.441-3.613-3.4-3.695C65.779,57.42,64.125,58.939,64.043,60.898z M67.873,58.836
				c1.219,0.086,2.139,1.143,2.053,2.361c-0.012,0.154-0.037,0.305-0.076,0.449c-0.326-0.336-0.795-0.564-1.432-0.609
				c-1.15-0.08-2.006,0.516-2.48,1.313c-0.301-0.406-0.463-0.916-0.424-1.459C65.598,59.672,66.652,58.754,67.873,58.836z"/>
			<path style="fill:#353A42;" d="M68.418,61.037c0.637,0.045,1.105,0.273,1.432,0.609c0.039-0.145,0.064-0.295,0.076-0.449
				c0.086-1.219-0.834-2.275-2.053-2.361c-1.221-0.082-2.275,0.836-2.359,2.055c-0.039,0.543,0.123,1.053,0.424,1.459
				C66.412,61.553,67.268,60.957,68.418,61.037z"/>
			<path style="fill:#FFFFFF;" d="M85.158,64.594c1.959-0.082,3.48-1.736,3.398-3.695c-0.082-1.959-1.736-3.479-3.693-3.398
				c-1.959,0.082-3.48,1.736-3.398,3.695C81.545,63.154,83.199,64.676,85.158,64.594z M85.328,58.836
				c1.219-0.082,2.275,0.836,2.359,2.055c0.039,0.543-0.125,1.053-0.424,1.459c-0.475-0.797-1.332-1.393-2.479-1.313
				c-0.639,0.045-1.109,0.273-1.434,0.609c-0.041-0.145-0.066-0.295-0.078-0.449C83.189,59.979,84.109,58.922,85.328,58.836z"/>
			<path style="fill:#353A42;" d="M84.785,61.037c1.146-0.08,2.004,0.516,2.479,1.313c0.299-0.406,0.463-0.916,0.424-1.459
				c-0.084-1.219-1.141-2.137-2.359-2.055c-1.219,0.086-2.139,1.143-2.055,2.361c0.012,0.154,0.037,0.305,0.078,0.449
				C83.676,61.311,84.146,61.082,84.785,61.037z"/>
			<path style="fill:#BA6900;" d="M84.926,69.193h-1.797c0.018,0,0.029,0.35,0.029,0.508c0,2.26-4.365,6.936-6.854,6.936
				c-2.488,0-6.855-4.685-6.855-6.944c0-0.158,0.012-0.499,0.031-0.499h-0.602c-3.34,0-5.881,2.227-5.881,5.484v0.576
				c0,3.258,2.541,5.939,5.881,5.939h1.004c1.131,3,3.311,5,5.805,5h2.486c2.242,0,4.254-2,5.477-4h1.275
				c3.391,0,5.072-2.611,5.072-6.004v-0.783C89.998,72.014,88.316,69.193,84.926,69.193z"/>
			<path style="fill:#583B2B;" d="M76.305,76.654c2.488,0,6.854-4.658,6.854-6.916c0-0.16-0.012-0.316-0.029-0.475
				c-0.254-2.07-2.211-3.906-6.824-3.906c-4.615,0-6.57,1.836-6.824,3.906c-0.02,0.158-0.031,0.314-0.031,0.475
				C69.449,71.996,73.816,76.654,76.305,76.654z"/>
			<path style="fill:#FFD6BC;" d="M68.547,122.193h-0.348c-0.582,0-1.115,0.201-1.547,0.527c-0.43-0.326-0.961-0.527-1.545-0.527
				H64.76c-0.75,0-1.418,0.326-1.889,0.836c-0.471-0.51-1.141-0.836-1.889-0.836h-0.348c-1.424,0-3.637,0.488-3.637,1.91v3.102
				c0,0.176,0.548,0.555,0.581,0.721c0.236,1.178,1.808,2.268,3.056,2.268h0.348c0.748,0,1.418-0.324,1.889-0.834
				c0.471,0.51,1.139,0.834,1.889,0.834h0.348c0.584,0,1.115-0.199,1.545-0.525c0.432,0.326,0.965,0.525,1.547,0.525h0.348
				c1.246,0,2.224-1.09,2.462-2.268c0.035-0.166-0.011-0.545-0.011-0.721v-3.102C70.998,122.682,69.971,122.193,68.547,122.193z"/>
			<path style="fill:#FFD6BC;" d="M91.928,122.193H91.58c-0.582,0-1.113,0.201-1.545,0.527c-0.432-0.326-0.963-0.527-1.545-0.527
				h-0.35c-0.75,0-1.418,0.326-1.889,0.836c-0.471-0.51-1.139-0.836-1.889-0.836h-0.348c-0.75,0-1.64-0.008-2.11,0.504
				c-0.422,0.459-0.907,0.734-0.907,1.406v3.102c0,1.424,1.594,2.988,3.018,2.988h0.348c0.75,0,1.418-0.324,1.889-0.834
				c0.471,0.51,1.139,0.834,1.889,0.834h0.35c0.582,0,1.113-0.199,1.545-0.525c0.432,0.326,0.963,0.525,1.545,0.525h0.348
				c1.248,0,2.034-1.09,2.272-2.268c0.033-0.166-0.202-0.545-0.202-0.721v-3.102C93.998,122.682,93.352,122.193,91.928,122.193z"/>
		</g>
		<path style="opacity:0.3;fill:#FFFFFF;" d="M106.438,109.316c-1.559,0.914-3.049,1.156-4.436,0.709
			c-1.879-0.607-3.6-2.445-4.959-5.262c0.299-0.387,0.59-0.781,0.867-1.184c10.006-7.723,16.578-20.727,16.578-35.471
			c0-9.353-2.654-18-7.141-25.051c-0.049-1.313-0.537-2.732-1.693-4.24c-1.395-1.822-2.82-2.773-4.223-3.094
			c-5.748-5.654-13.006-9.387-21.006-10.295c-1.109-0.273-2.367-0.436-3.801-0.439v89.797c1.889-0.002,3.728-0.213,5.502-0.598
			v8.176c-0.424,0.459-0.688,1.066-0.688,1.738v3.102c0,1.424,1.152,2.576,2.576,2.576h0.348c0.75,0,1.418-0.326,1.889-0.836
			c0.471,0.51,1.139,0.836,1.889,0.836h0.35c0.582,0,1.113-0.201,1.545-0.527c0.432,0.326,0.963,0.527,1.545,0.527h0.348
			c1.248,0,2.287-0.887,2.525-2.064h0.053V107.58c0.199-0.191,0.396-0.387,0.592-0.584c1.631,2.953,3.69,4.883,6.061,5.648
			c0.729,0.234,1.475,0.352,2.232,0.352c1.449,0,2.936-0.434,4.398-1.283c2.596,1.934,7.199-3.328,8.799-6.768
			C116.588,104.945,105.105,103.648,106.438,109.316z"/>
	</g>
</g>
<g>
</g>
<g>
</g>
<g>
</g>
<g>
</g>
<g>
</g>
<g>
</g>
<g>
</g>
<g>
</g>
<g>
</g>
<g>
</g>
<g>
</g>
<g>
</g>
<g>
</g>
<g>
</g>
<g>
</g>
</svg>
