<?xml version="1.0" standalone="no"?>
<!DOCTYPE svg PUBLIC "-//W3C//DTD SVG 20010904//EN"
 "http://www.w3.org/TR/2001/REC-SVG-20010904/DTD/svg10.dtd">
<svg version="1.0" xmlns="http://www.w3.org/2000/svg"
 width="512.000000pt" height="512.000000pt" viewBox="0 0 512.000000 512.000000"
 preserveAspectRatio="xMidYMid meet">
<metadata>
Created by potrace 1.16, written by Peter Selinger 2001-2019
</metadata>
<g transform="translate(0.000000,512.000000) scale(0.100000,-0.100000)"
fill="#000000" stroke="none">
<path d="M2240 5105 c-403 -53 -769 -189 -1098 -408 -627 -419 -1036 -1077
-1127 -1817 -20 -163 -20 -477 0 -640 54 -439 224 -858 497 -1225 101 -135
359 -395 488 -491 389 -291 773 -447 1250 -510 191 -25 555 -16 750 19 829
147 1520 673 1880 1430 54 114 138 340 155 414 l7 33 -2116 0 -2116 0 0 455 0
454 53 15 c28 8 71 20 95 26 l42 11 -15 29 c-8 16 -15 49 -15 73 0 39 5 49 35
75 19 17 50 34 69 37 19 4 44 18 57 31 45 48 118 43 200 -12 28 -19 54 -34 58
-34 3 0 22 28 42 61 l35 61 -19 39 c-29 60 -4 82 108 98 73 11 105 31 105 68
0 33 -28 30 -97 -12 -72 -44 -105 -45 -145 -5 -26 26 -29 36 -24 65 4 19 2 36
-4 40 -21 13 -10 71 23 115 17 24 48 70 67 101 84 136 97 155 128 190 37 42
115 83 177 93 89 15 237 -39 307 -111 20 -21 50 -62 66 -91 l29 -52 29 57 c35
69 97 116 174 132 35 7 334 11 926 11 l875 0 -26 -49 c-62 -113 -140 -170
-249 -178 -60 -5 -61 -6 -96 -57 -39 -57 -121 -112 -179 -121 -20 -4 -45 -8
-56 -10 -12 -2 -35 -25 -53 -50 -39 -55 -107 -100 -173 -114 -29 -6 -169 -11
-327 -11 l-278 0 1 -40 c0 -22 2 -40 5 -40 3 -1 52 -5 110 -11 58 -5 179 -14
270 -19 269 -15 401 -60 520 -180 54 -54 77 -89 132 -200 38 -74 92 -196 121
-270 l54 -135 38 3 c25 3 35 0 31 -7 -5 -7 6 -11 33 -11 59 0 68 -6 110 -79
22 -36 48 -75 60 -85 29 -26 27 -34 -16 -45 -95 -27 -172 0 -228 78 -20 28
-41 51 -46 51 -10 0 -50 75 -85 160 l-23 55 -1 -165 c0 -110 -4 -173 -13 -190
-11 -23 -97 -75 -158 -95 l-24 -8 28 -4 c15 -2 25 -9 22 -14 -4 -6 259 -8 692
-7 l698 3 14 85 c9 58 14 178 15 375 1 259 -2 304 -22 420 -28 159 -87 393
-105 414 -8 9 -28 57 -47 106 -317 868 -1127 1505 -2060 1620 -150 18 -501 18
-640 0z m-1115 -3400 c41 -20 52 -22 65 -11 39 33 40 31 40 -76 l0 -103 -38
75 c-45 92 -82 120 -154 120 -64 0 -100 -33 -123 -114 -24 -81 -18 -305 9
-360 37 -74 121 -98 187 -53 l34 23 3 111 3 112 -43 4 c-24 2 9 4 72 4 63 0
100 -2 83 -4 l-33 -4 0 -136 0 -135 -22 16 c-40 29 -49 29 -78 1 -63 -60 -194
-39 -255 41 -98 128 -82 372 31 462 70 56 144 65 219 27z m2785 15 c0 -5 -16
-10 -35 -10 l-35 0 0 -265 0 -265 50 0 c68 0 107 22 131 73 l19 42 0 -67 0
-68 -140 0 -140 0 0 254 c0 140 -3 261 -6 270 -4 10 -18 16 -35 16 -19 0 -29
5 -29 15 0 12 19 15 110 15 67 0 110 -4 110 -10z m400 0 c0 -5 -18 -10 -40
-10 l-40 0 0 -269 0 -270 43 -4 c23 -2 -12 -4 -78 -4 -66 0 -103 2 -82 4 l37
4 0 270 0 269 -35 0 c-19 0 -35 5 -35 10 0 6 45 10 115 10 70 0 115 -4 115
-10z m-2256 -197 c72 -106 137 -198 144 -205 9 -10 12 24 12 169 0 152 -3 184
-16 197 -8 9 -23 16 -32 16 -9 0 -24 5 -32 10 -10 6 87 10 283 10 l297 0 -1
-97 0 -98 -14 53 c-27 98 -50 116 -167 128 l-68 6 0 -126 0 -126 39 0 c48 0
77 23 96 75 14 38 14 35 14 -85 -1 -83 -4 -114 -9 -92 -12 51 -46 82 -92 82
l-38 0 0 -130 0 -130 69 0 c38 0 81 4 95 10 33 12 62 61 77 127 7 29 16 53 21
53 4 0 8 -52 8 -115 l0 -115 -230 0 c-147 0 -230 4 -230 10 0 6 20 10 45 10
l45 0 0 270 0 270 -49 0 c-27 0 -61 -4 -75 -10 l-26 -9 -2 -272 -3 -271 -160
231 -160 232 -3 -203 c-3 -222 -3 -221 61 -245 28 -10 19 -11 -73 -11 -86 0
-100 2 -75 10 67 23 65 16 65 284 0 266 4 251 -65 271 -38 11 -36 11 39 10
l79 -2 131 -192z m1507 -48 c49 -132 96 -257 104 -277 l15 -38 -45 0 c-30 0
-45 4 -45 13 0 7 -13 46 -29 87 l-28 75 -109 6 -109 5 98 2 c70 1 97 5 97 15
0 6 -20 67 -44 134 l-45 122 17 50 c9 28 20 50 25 48 5 -1 49 -111 98 -242z
m-1842 138 c-1 -82 -2 -92 -10 -59 -25 105 -59 134 -170 143 l-69 6 0 -127 0
-126 39 0 c48 0 77 23 96 75 13 38 14 34 14 -90 0 -126 -1 -129 -14 -81 -15
59 -35 76 -87 76 l-38 0 0 -130 0 -130 65 0 c115 0 152 29 176 140 6 27 15 50
20 50 5 0 9 -49 9 -110 l0 -110 -220 0 c-140 0 -220 4 -220 10 0 6 18 10 40
10 l40 0 0 269 0 270 -37 4 c-21 2 53 4 165 5 l202 2 -1 -97z m1181 -28 l0
-125 78 0 c71 0 81 2 103 26 21 22 24 35 24 99 0 64 -3 77 -24 99 l-24 26 27
0 c38 0 100 -34 113 -63 8 -17 8 -38 2 -67 -21 -93 -84 -138 -205 -147 l-74
-6 0 -133 0 -134 -40 0 -40 0 0 269 0 270 -42 4 c-29 2 -18 4 30 5 l72 2 0
-125z"/>
<path d="M2000 3838 c0 -33 -43 -119 -73 -147 -17 -16 -25 -32 -22 -45 16 -83
16 -84 -15 -91 -43 -9 -48 -27 -33 -108 18 -94 11 -129 -39 -183 -50 -54 -124
-84 -211 -84 l-62 0 -43 -71 c-23 -38 -42 -75 -42 -81 0 -5 9 -22 19 -37 19
-27 19 -28 2 -55 l-19 -28 -26 36 c-14 20 -38 52 -52 71 -29 41 -110 85 -154
85 -23 0 -35 -8 -52 -33 -19 -31 -26 -33 -71 -33 -79 1 -105 -50 -61 -121 l13
-21 79 21 79 20 179 -46 c98 -26 189 -50 202 -53 18 -5 22 -13 22 -45 0 -32 4
-39 19 -39 33 0 75 20 108 52 l31 30 7 -56 c4 -31 4 -76 1 -101 -8 -51 0 -55
58 -31 40 17 72 56 87 107 10 33 17 39 55 48 47 12 74 41 74 81 0 34 -22 63
-67 91 l-37 23 63 13 c75 15 112 40 136 89 29 61 16 110 -44 164 l-50 45 34
110 c45 145 49 173 35 242 -15 69 -39 120 -81 168 -36 41 -49 44 -49 13z"/>
<path d="M2354 3841 c-40 -18 -84 -65 -98 -105 -4 -11 -27 -94 -52 -185 -25
-91 -50 -174 -56 -184 -8 -16 -3 -25 26 -52 19 -17 40 -44 46 -59 29 -77 -4
-178 -76 -229 -33 -23 -41 -34 -35 -46 10 -17 14 -50 12 -93 -1 -34 -63 -106
-98 -114 -14 -4 -32 -22 -43 -45 -18 -34 -20 -59 -20 -209 l0 -172 -29 -29
c-22 -21 -39 -29 -66 -29 -20 0 -45 -5 -55 -10 -41 -22 -46 -145 -7 -159 33
-12 96 4 126 33 22 21 37 26 80 26 70 0 91 12 91 54 0 19 9 44 19 57 17 21 18
35 14 120 -4 58 -1 122 7 163 l12 66 92 0 c69 1 118 8 201 31 273 74 341 89
394 89 65 0 130 -19 205 -61 127 -72 221 -98 426 -119 128 -13 162 -26 179
-67 10 -26 32 -194 25 -201 -1 -2 -42 -12 -91 -23 -48 -10 -98 -21 -109 -24
-12 -2 -27 -18 -34 -35 -11 -26 -10 -37 4 -75 10 -25 21 -47 25 -50 10 -5 252
74 299 99 l32 17 0 249 0 250 -31 64 -31 64 -62 6 c-84 10 -171 33 -226 61
-51 26 -140 116 -185 188 l-29 45 -81 6 c-44 4 -160 14 -258 23 -166 15 -179
15 -196 -1 -34 -31 -86 -39 -144 -22 -78 24 -86 31 -61 56 19 19 22 20 57 5
46 -19 70 -19 106 0 31 16 53 62 44 94 -5 19 -14 21 -122 23 l-118 3 14 33 13
32 148 0 c166 0 207 12 262 72 l31 33 -189 5 -188 5 13 33 13 32 236 0 c158 0
250 4 278 12 39 12 116 77 116 98 0 6 -102 10 -285 10 -157 0 -285 2 -285 5 0
2 5 15 11 29 l12 25 366 3 c335 3 369 5 401 22 39 21 80 55 80 68 0 4 -251 8
-557 8 -523 0 -561 -2 -599 -19z"/>
<path d="M3358 3087 c71 -103 154 -151 296 -171 l48 -8 -31 45 c-55 80 -136
135 -237 161 -34 9 -72 16 -83 16 -21 0 -21 -1 7 -43z"/>
<path d="M1090 2719 c-167 -44 -150 -35 -150 -79 0 -25 5 -40 13 -40 6 0 63
12 125 27 l112 27 0 43 c0 49 4 49 -100 22z"/>
<path d="M1250 2698 l0 -44 113 -27 c61 -15 115 -27 120 -27 4 0 7 18 7 40 0
44 12 37 -140 75 -36 9 -73 18 -82 21 -15 5 -18 -1 -18 -38z"/>
<path d="M1653 2689 l-33 -10 0 -299 0 -300 46 0 c39 0 45 3 40 17 -15 38 -17
100 -4 138 17 51 78 95 142 102 l46 6 0 133 0 133 -42 -15 c-22 -8 -65 -17
-93 -20 l-53 -7 5 67 c6 72 6 72 -54 55z"/>
<path d="M2791 2682 c-10 -8 3 -36 63 -134 50 -82 76 -135 76 -155 0 -33 -36
-88 -93 -142 l-35 -33 -65 11 c-105 18 -135 15 -168 -19 -26 -26 -30 -36 -27
-77 l3 -48 145 -3 145 -2 130 140 c72 77 134 151 139 164 7 19 -2 45 -50 141
-51 100 -64 120 -96 136 -43 22 -146 35 -167 21z"/>
<path d="M2640 2664 c-30 -8 -95 -28 -145 -43 -49 -16 -135 -35 -190 -41 -55
-7 -103 -17 -106 -22 -12 -19 -21 -136 -14 -182 4 -26 16 -57 26 -70 19 -24
19 -24 -10 -36 -24 -10 -30 -19 -36 -57 -8 -54 -41 -89 -91 -99 -87 -16 -29
-24 179 -24 l225 0 4 65 c5 79 27 112 92 139 44 19 50 19 129 4 l82 -17 47 52
c26 29 48 61 48 72 0 27 -151 269 -170 272 -8 1 -40 -5 -70 -13z"/>
<path d="M1090 2569 c-167 -44 -150 -35 -150 -79 0 -26 5 -40 13 -40 6 0 62
13 122 28 l110 28 3 42 c4 49 7 48 -98 21z"/>
<path d="M1250 2547 l0 -43 113 -27 c61 -15 116 -27 120 -27 5 0 7 19 5 42
l-3 42 -110 28 c-60 15 -113 28 -117 28 -5 0 -8 -19 -8 -43z"/>
<path d="M3115 2569 c4 -13 21 -50 36 -81 31 -61 36 -106 18 -141 -7 -12 -61
-73 -120 -134 -60 -62 -109 -117 -109 -123 0 -6 85 -10 239 -10 l240 0 -16 45
c-31 92 6 175 85 190 20 3 59 11 86 17 l49 10 -6 64 c-2 35 -10 70 -16 78 -7
8 -44 16 -94 20 -152 12 -274 38 -381 81 -16 7 -17 5 -11 -16z"/>
<path d="M1050 2411 l-105 -27 -3 -42 c-2 -30 1 -42 10 -42 7 0 63 13 123 28
l110 28 3 42 c4 51 7 50 -138 13z"/>
<path d="M1250 2390 c0 -44 -12 -37 140 -75 36 -9 73 -18 83 -21 14 -5 17 1
17 38 l0 44 -112 27 c-62 15 -116 27 -120 27 -5 0 -8 -18 -8 -40z"/>
<path d="M1068 2136 c-82 -22 -148 -44 -148 -48 0 -5 135 -8 300 -8 165 0 300
4 300 8 0 6 -213 70 -290 86 -8 2 -81 -15 -162 -38z"/>
</g>
</svg>
